<svg width="256" height="257" viewBox="0 0 256 257" fill="none" xmlns="http://www.w3.org/2000/svg">
<rect y="0.276367" width="256" height="256" rx="25.6" fill="#7F54B3"/>
<path fill-rule="evenodd" clip-rule="evenodd" d="M208.995 118.676H47.0579C36.7954 118.676 28.4801 127.017 28.4801 137.258V199.231C28.4801 209.471 36.7954 217.812 47.0053 217.812H123.738L158.841 237.396L150.894 217.812H208.995C219.205 217.812 227.52 209.471 227.52 199.231V137.258C227.52 127.017 219.205 118.676 208.995 118.676ZM43.6371 132.982C41.6373 133.035 39.7953 133.985 38.532 135.516C37.3216 137.099 36.848 139.105 37.269 141.111C42.0582 171.728 46.5316 192.368 50.6894 203.031C52.2155 206.938 54.1101 208.785 56.3207 208.627C59.6888 208.363 63.7938 203.665 68.5829 194.427C69.6482 192.29 70.9465 189.694 72.4712 186.647L72.4718 186.645L72.4799 186.629C74.6449 182.301 77.265 177.063 80.3192 170.936C84.74 186.298 90.7396 197.858 98.3181 205.618C100.476 207.782 102.581 208.785 104.739 208.627C106.581 208.521 108.265 207.36 109.054 205.671C109.844 204.034 110.212 202.187 110.002 200.339C109.475 192.896 110.265 182.497 112.265 169.247C114.317 155.522 116.948 145.704 120.106 139.792C120.738 138.63 121.001 137.258 120.896 135.885C120.791 134.038 119.896 132.296 118.422 131.187C117.001 129.973 115.159 129.392 113.317 129.551C111.001 129.656 108.949 131.029 107.949 133.14C102.949 142.378 99.3706 157.37 97.2129 178.063C93.7921 169.036 91.2133 159.693 89.5292 150.191C88.6345 145.334 86.4241 143.064 82.8454 143.328C80.3718 143.487 78.372 145.123 76.7405 148.185L58.8993 182.18C56.0048 170.303 53.2682 155.839 50.742 138.841C50.1103 134.671 47.7421 132.718 43.6371 132.982ZM162.368 148.343C159.631 143.434 154.894 139.95 149.368 138.894C147.895 138.577 146.421 138.419 144.947 138.419C137.158 138.419 130.79 142.484 125.843 150.613C121.633 157.528 119.423 165.499 119.528 173.576C119.528 179.857 120.844 185.242 123.422 189.729C126.159 194.638 130.896 198.122 136.422 199.178C137.895 199.495 139.369 199.653 140.842 199.653C148.684 199.653 155.052 195.588 159.946 187.459C164.157 180.491 166.367 172.52 166.262 164.338C166.262 158.056 164.946 152.725 162.368 148.343ZM152.105 170.989C151 176.321 148.947 180.333 145.895 183.078C143.526 185.242 141.316 186.087 139.316 185.717C137.316 185.347 135.737 183.553 134.527 180.438C133.632 178.063 133.106 175.582 133.106 172.995C133.106 170.989 133.317 168.983 133.685 167.03C134.474 163.546 135.895 160.273 138.001 157.317C140.685 153.358 143.526 151.669 146.474 152.302C148.474 152.725 150.052 154.467 151.263 157.581C152.157 159.957 152.684 162.437 152.684 164.971C152.684 166.977 152.526 168.983 152.105 170.989ZM200.312 138.894C205.838 139.95 210.575 143.434 213.31 148.343C215.89 152.725 217.206 158.056 217.206 164.338C217.31 172.52 215.101 180.491 210.89 187.459C205.996 195.588 199.629 199.653 191.786 199.653C190.313 199.653 188.84 199.495 187.365 199.178C181.84 198.122 177.103 194.638 174.366 189.729C171.787 185.242 170.472 179.857 170.472 173.576C170.366 165.499 172.577 157.528 176.787 150.613C181.734 142.484 188.103 138.419 195.89 138.419C197.366 138.419 198.839 138.577 200.312 138.894ZM196.838 183.078C199.89 180.333 201.943 176.321 203.05 170.989C203.469 168.983 203.629 166.977 203.629 164.971C203.629 162.437 203.101 159.957 202.207 157.581C200.995 154.467 199.418 152.725 197.417 152.302C194.471 151.669 191.629 153.358 188.944 157.317C186.839 160.273 185.419 163.546 184.629 167.03C184.261 168.983 184.05 170.989 184.05 172.995C184.05 175.582 184.576 178.063 185.47 180.438C186.681 183.553 188.261 185.347 190.26 185.717C192.261 186.087 194.471 185.242 196.838 183.078Z" fill="white"/>
<path d="M181.26 236.606H183.68C183.633 237.66 183.42 238.556 183.04 239.296C182.66 240.03 182.113 240.59 181.4 240.976C180.693 241.363 179.83 241.556 178.81 241.556C178.037 241.556 177.343 241.416 176.73 241.136C176.123 240.856 175.607 240.453 175.18 239.926C174.753 239.393 174.427 238.743 174.2 237.976C173.98 237.21 173.87 236.34 173.87 235.366V232.786C173.87 231.813 173.983 230.943 174.21 230.176C174.443 229.41 174.777 228.76 175.21 228.226C175.643 227.693 176.17 227.29 176.79 227.016C177.417 226.736 178.123 226.596 178.91 226.596C179.917 226.596 180.763 226.79 181.45 227.176C182.137 227.563 182.667 228.13 183.04 228.876C183.413 229.623 183.63 230.533 183.69 231.606H181.27C181.237 230.88 181.137 230.3 180.97 229.866C180.81 229.426 180.563 229.11 180.23 228.916C179.903 228.723 179.463 228.626 178.91 228.626C178.45 228.626 178.053 228.713 177.72 228.886C177.393 229.06 177.123 229.32 176.91 229.666C176.703 230.006 176.547 230.436 176.44 230.956C176.34 231.47 176.29 232.073 176.29 232.766V235.366C176.29 236.033 176.333 236.623 176.42 237.136C176.507 237.65 176.647 238.086 176.84 238.446C177.033 238.8 177.29 239.07 177.61 239.256C177.93 239.436 178.33 239.526 178.81 239.526C179.383 239.526 179.84 239.436 180.18 239.256C180.527 239.076 180.783 238.773 180.95 238.346C181.117 237.92 181.22 237.34 181.26 236.606ZM194.1 239.326V241.356H185.63V239.326H194.1ZM193.92 228.366L186.52 241.356H184.9V239.736L192.33 226.796H193.92V228.366ZM193.02 226.796V228.836H184.89V226.796H193.02ZM201.101 226.796L196.381 242.606H194.581L199.311 226.796H201.101ZM208.811 237.596C208.811 237.296 208.778 237.03 208.711 236.796C208.651 236.556 208.535 236.34 208.361 236.146C208.188 235.953 207.941 235.763 207.621 235.576C207.308 235.39 206.901 235.2 206.401 235.006C205.828 234.786 205.291 234.546 204.791 234.286C204.298 234.02 203.861 233.72 203.481 233.386C203.108 233.046 202.815 232.65 202.601 232.196C202.388 231.743 202.281 231.216 202.281 230.616C202.281 230.023 202.385 229.483 202.591 228.996C202.805 228.503 203.105 228.08 203.491 227.726C203.885 227.366 204.351 227.09 204.891 226.896C205.431 226.696 206.028 226.596 206.681 226.596C207.621 226.596 208.425 226.796 209.091 227.196C209.765 227.596 210.278 228.133 210.631 228.806C210.991 229.48 211.171 230.226 211.171 231.046H208.751C208.751 230.573 208.678 230.153 208.531 229.786C208.385 229.42 208.158 229.133 207.851 228.926C207.545 228.72 207.148 228.616 206.661 228.616C206.215 228.616 205.845 228.703 205.551 228.876C205.265 229.05 205.051 229.286 204.911 229.586C204.778 229.886 204.711 230.23 204.711 230.616C204.711 230.883 204.768 231.126 204.881 231.346C204.995 231.56 205.158 231.756 205.371 231.936C205.585 232.116 205.845 232.286 206.151 232.446C206.458 232.606 206.811 232.76 207.211 232.906C207.891 233.153 208.485 233.426 208.991 233.726C209.498 234.026 209.915 234.363 210.241 234.736C210.575 235.103 210.821 235.52 210.981 235.986C211.148 236.453 211.231 236.983 211.231 237.576C211.231 238.176 211.128 238.723 210.921 239.216C210.721 239.703 210.428 240.12 210.041 240.466C209.655 240.813 209.188 241.083 208.641 241.276C208.095 241.463 207.481 241.556 206.801 241.556C206.175 241.556 205.571 241.463 204.991 241.276C204.418 241.09 203.905 240.806 203.451 240.426C202.998 240.04 202.638 239.556 202.371 238.976C202.111 238.396 201.981 237.716 201.981 236.936H204.411C204.411 237.403 204.468 237.803 204.581 238.136C204.695 238.463 204.858 238.733 205.071 238.946C205.291 239.153 205.548 239.306 205.841 239.406C206.141 239.5 206.475 239.546 206.841 239.546C207.295 239.546 207.665 239.466 207.951 239.306C208.245 239.14 208.461 238.91 208.601 238.616C208.741 238.323 208.811 237.983 208.811 237.596ZM215.432 226.796V241.356H213.002V226.796H215.432ZM222.702 226.796L217.852 233.826L214.942 237.396L214.482 234.856L216.492 231.876L219.762 226.796H222.702ZM220.032 241.356L216.342 234.476L218.012 232.746L222.902 241.356H220.032Z" fill="white" fill-opacity="0.9"/>
<path d="M119.974 70.8348L125.968 47.088H130.123L129.304 54.3534L123.339 77.6761H119.664L119.974 70.8348ZM117.458 47.088L122.038 70.9196L122.066 77.6761H117.939L111.069 47.088H117.458ZM134.958 70.6369L139.339 47.088H145.757L138.887 77.6761H134.76L134.958 70.6369ZM130.83 47.088L136.739 70.5238L137.163 77.6761H133.488L127.41 54.3534L126.618 47.088H130.83ZM155.709 52.9681V89.4365H149.15V47.088H155.172L155.709 52.9681ZM172.162 61.1664V63.5977C172.162 65.9912 171.945 68.102 171.512 69.9302C171.078 71.7583 170.438 73.2943 169.59 74.5382C168.76 75.7632 167.733 76.6867 166.508 77.3086C165.283 77.9306 163.851 78.2415 162.211 78.2415C160.666 78.2415 159.318 77.9023 158.168 77.2238C157.038 76.5453 156.086 75.5936 155.313 74.3686C154.54 73.1435 153.919 71.6923 153.447 70.015C152.995 68.3188 152.665 66.4718 152.458 64.474V60.7424C152.665 58.6316 152.986 56.7092 153.419 54.9753C153.871 53.2226 154.484 51.7148 155.257 50.4521C156.048 49.1894 157.009 48.2188 158.14 47.5403C159.271 46.8618 160.619 46.5226 162.183 46.5226C163.822 46.5226 165.264 46.8147 166.508 47.3989C167.752 47.9832 168.789 48.8784 169.618 50.0846C170.466 51.2908 171.097 52.8173 171.512 54.6643C171.945 56.4925 172.162 58.6598 172.162 61.1664ZM165.575 63.5977V61.1664C165.575 59.6022 165.472 58.2546 165.264 57.1238C165.076 55.9742 164.755 55.0318 164.303 54.2968C163.87 53.5618 163.314 53.0152 162.635 52.6572C161.975 52.2991 161.156 52.12 160.176 52.12C159.309 52.12 158.545 52.2991 157.886 52.6572C157.226 53.0152 156.67 53.5147 156.218 54.1555C155.766 54.7774 155.407 55.5219 155.144 56.3888C154.88 57.2369 154.71 58.1604 154.635 59.1593V66.0854C154.804 67.2916 155.087 68.4036 155.483 69.4213C155.879 70.4202 156.453 71.2212 157.207 71.8242C157.98 72.4273 158.988 72.7289 160.232 72.7289C161.193 72.7289 162.013 72.5404 162.692 72.1635C163.37 71.7866 163.917 71.2212 164.331 70.4673C164.765 69.7134 165.076 68.7711 165.264 67.6403C165.472 66.4906 165.575 65.1431 165.575 63.5977ZM183.556 47.088V77.6761H176.969V47.088H183.556ZM176.63 39.0875C176.63 38.0321 176.95 37.1557 177.591 36.4584C178.232 35.7422 179.127 35.3842 180.277 35.3842C181.426 35.3842 182.322 35.7422 182.962 36.4584C183.603 37.1557 183.924 38.0321 183.924 39.0875C183.924 40.1052 183.603 40.9628 182.962 41.6601C182.322 42.3574 181.426 42.7061 180.277 42.7061C179.127 42.7061 178.232 42.3574 177.591 41.6601C176.95 40.9628 176.63 40.1052 176.63 39.0875ZM198.06 77.6761H191.473V44.1761C191.473 41.8957 191.85 39.9827 192.604 38.4373C193.376 36.873 194.46 35.6857 195.855 34.8753C197.268 34.0649 198.936 33.6597 200.858 33.6597C201.443 33.6597 202.018 33.7068 202.583 33.801C203.148 33.8764 203.686 33.9989 204.194 34.1685L204.053 39.5398C203.789 39.4645 203.459 39.4079 203.064 39.3702C202.687 39.3325 202.319 39.3137 201.961 39.3137C201.132 39.3137 200.425 39.5022 199.841 39.8791C199.257 40.256 198.814 40.8026 198.512 41.5188C198.211 42.2349 198.06 43.1207 198.06 44.1761V77.6761ZM203.035 47.088V52.1766H187.628V47.088H203.035ZM214.373 74.312L220.931 47.088H227.858L217.765 82.3124C217.539 83.0852 217.219 83.9144 216.804 84.8002C216.408 85.686 215.89 86.5247 215.249 87.3162C214.627 88.1266 213.845 88.7769 212.903 89.2669C211.979 89.7757 210.877 90.0302 209.595 90.0302C209.067 90.0302 208.559 89.983 208.068 89.8888C207.578 89.7946 207.107 89.6815 206.655 89.5496V84.2348C206.806 84.2536 206.975 84.2725 207.164 84.2913C207.352 84.3102 207.522 84.3196 207.673 84.3196C208.596 84.3196 209.359 84.1783 209.963 83.8956C210.566 83.6317 211.065 83.1982 211.461 82.5951C211.857 82.0109 212.205 81.2288 212.507 80.2487L214.373 74.312ZM211.461 47.088L216.832 69.8453L217.991 77.2238L213.468 78.3829L204.365 47.088H211.461Z" fill="white" fill-opacity="0.9"/>
<rect opacity="0.3" width="74.3597" height="10.9024" rx="5.45119" transform="matrix(-4.37114e-08 1 1 4.37114e-08 73.9641 24.3201)" fill="white"/>
<rect opacity="0.3" width="74.0802" height="10.9024" rx="5.45119" transform="matrix(-4.37114e-08 1 1 4.37114e-08 51.1809 24.3201)" fill="white"/>
<rect opacity="0.8" width="77.9774" height="10.9245" rx="5.46226" transform="matrix(0.338781 0.940865 0.940865 -0.338781 27 26.4836)" fill="white"/>
<rect opacity="0.8" width="78.368" height="10.9245" rx="5.46226" transform="matrix(0.338781 0.940865 0.940865 -0.338781 49.5734 26.4836)" fill="white"/>
<rect opacity="0.8" width="36.2918" height="10.9245" rx="5.46226" transform="matrix(0.338781 0.940865 0.940865 -0.338781 72.4265 26.4836)" fill="white"/>
</svg>
